<?xml version="1.0" encoding="UTF-8" standalone="no"?>
<!-- Created with Inkscape (http://www.inkscape.org/) -->

<svg
   xmlns:dc="http://purl.org/dc/elements/1.1/"
   xmlns:cc="http://creativecommons.org/ns#"
   xmlns:rdf="http://www.w3.org/1999/02/22-rdf-syntax-ns#"
   xmlns:svg="http://www.w3.org/2000/svg"
   xmlns="http://www.w3.org/2000/svg"
   xmlns:sodipodi="http://sodipodi.sourceforge.net/DTD/sodipodi-0.dtd"
   xmlns:inkscape="http://www.inkscape.org/namespaces/inkscape"
   width="210mm"
   height="297mm"
   viewBox="0 0 210 297"
   version="1.1"
   id="svg8"
   inkscape:version="0.92.4 (5da689c313, 2019-01-14)"
   sodipodi:docname="gesture_indicator_annotation_shapes.svg">
  <defs
     id="defs2" />
  <sodipodi:namedview
     id="base"
     pagecolor="#ffffff"
     bordercolor="#666666"
     borderopacity="1.0"
     inkscape:pageopacity="0.0"
     inkscape:pageshadow="2"
     inkscape:zoom="0.35"
     inkscape:cx="-102.85714"
     inkscape:cy="100.95966"
     inkscape:document-units="mm"
     inkscape:current-layer="layer1"
     showgrid="false"
     inkscape:window-width="1920"
     inkscape:window-height="1001"
     inkscape:window-x="-9"
     inkscape:window-y="-9"
     inkscape:window-maximized="1" />
  <metadata
     id="metadata5">
    <rdf:RDF>
      <cc:Work
         rdf:about="">
        <dc:format>image/svg+xml</dc:format>
        <dc:type
           rdf:resource="http://purl.org/dc/dcmitype/StillImage" />
        <dc:title></dc:title>
      </cc:Work>
    </rdf:RDF>
  </metadata>
  <g
     inkscape:label="Layer 1"
     inkscape:groupmode="layer"
     id="layer1">
    <circle
       style="opacity:1;vector-effect:none;fill:none;fill-opacity:1;stroke:#000000;stroke-width:8;stroke-linecap:butt;stroke-linejoin:miter;stroke-miterlimit:4;stroke-dasharray:none;stroke-dashoffset:0;stroke-opacity:1"
       id="path815"
       cx="-303.1369"
       cy="125.3988"
       r="64.255951" />
    <path
       style="fill:none;stroke:#000000;stroke-width:8;stroke-linecap:butt;stroke-linejoin:miter;stroke-opacity:1;stroke-miterlimit:4;stroke-dasharray:none"
       d="m -359.83333,149.58928 57.45239,-86.934519 56.69642,89.958329"
       id="path4520"
       inkscape:connector-curvature="0" />
    <circle
       style="opacity:1;vector-effect:none;fill:none;fill-opacity:1;stroke:#000000;stroke-width:8;stroke-linecap:butt;stroke-linejoin:miter;stroke-miterlimit:4;stroke-dasharray:none;stroke-dashoffset:0;stroke-opacity:1"
       id="path815-7"
       cx="-131.53571"
       cy="122.55088"
       r="64.255951" />
    <path
       style="fill:none;stroke:#000000;stroke-width:8;stroke-linecap:butt;stroke-linejoin:miter;stroke-miterlimit:4;stroke-dasharray:none;stroke-opacity:1"
       d="m -192.0119,136.15801 61.23215,-44.601188 61.232129,46.113088"
       id="path4520-1"
       inkscape:connector-curvature="0"
       sodipodi:nodetypes="ccc" />
    <path
       style="opacity:1;vector-effect:none;fill:none;fill-opacity:1;stroke:#000000;stroke-width:8;stroke-linecap:butt;stroke-linejoin:miter;stroke-miterlimit:4;stroke-dasharray:none;stroke-dashoffset:0;stroke-opacity:1"
       d="m -304.27083,218.29284 -58.48326,89.34647 a 64.255951,64.255951 0 0 0 57.72724,36.14198 64.255951,64.255951 0 0 0 57.66883,-36.09753 z"
       id="path815-6"
       inkscape:connector-curvature="0" />
    <path
       style="opacity:1;vector-effect:none;fill:none;fill-opacity:1;stroke:#000000;stroke-width:8;stroke-linecap:butt;stroke-linejoin:miter;stroke-miterlimit:4;stroke-dasharray:none;stroke-dashoffset:0;stroke-opacity:1"
       d="m -132.66942,245.68341 -63.54134,44.30325 a 64.255951,64.255951 0 0 0 62.78531,50.94676 64.255951,64.255951 0 0 0 63.195628,-52.95233 z"
       id="path815-7-3"
       inkscape:connector-curvature="0" />
    <path
       style="opacity:1;vector-effect:none;fill:none;fill-opacity:1;stroke:#000000;stroke-width:8;stroke-linecap:butt;stroke-linejoin:miter;stroke-miterlimit:4;stroke-dasharray:none;stroke-dashoffset:0;stroke-opacity:1"
       d="M 123.22024,115.77802 62.934006,220.19645 a 71.059523,71.059523 0 0 0 60.286234,33.52353 71.059523,71.059523 0 0 0 60.26092,-33.56694 z"
       id="path4575"
       inkscape:connector-curvature="0" />
    <path
       style="opacity:1;vector-effect:none;fill:none;fill-opacity:1;stroke:#000000;stroke-width:8;stroke-linecap:butt;stroke-linejoin:miter;stroke-miterlimit:4;stroke-dasharray:none;stroke-dashoffset:0;stroke-opacity:1"
       d="m -306.67695,377.92067 -58.48326,89.34648 c 0,0 33.15753,-13.77075 57.72724,-13.75088 24.53862,-0.0339 57.66883,13.79533 57.66883,13.79533 z"
       id="path815-6-4"
       inkscape:connector-curvature="0"
       sodipodi:nodetypes="ccccc" />
    <path
       style="opacity:1;vector-effect:none;fill:none;fill-opacity:1;stroke:#000000;stroke-width:8;stroke-linecap:butt;stroke-linejoin:miter;stroke-miterlimit:4;stroke-dasharray:none;stroke-dashoffset:0;stroke-opacity:1"
       d="m -135.07554,405.31125 -63.54134,44.30324 c 0,0 33.96789,-10.32182 64.29722,-10.28539 31.10518,-0.0282 61.683713,8.27982 61.683713,8.27982 z"
       id="path815-7-3-7"
       inkscape:connector-curvature="0"
       sodipodi:nodetypes="ccccc" />
    <path
       style="opacity:1;vector-effect:none;fill:none;fill-opacity:1;stroke:#000000;stroke-width:30.23622131;stroke-linecap:butt;stroke-linejoin:miter;stroke-miterlimit:4;stroke-dasharray:none;stroke-dashoffset:0;stroke-opacity:1"
       d="M 1134.3359 449.40039 L 927.04883 808.43164 A 252.49215 252.49215 0 0 0 907.33984 842.56836 L 906.48242 844.05273 A 268.57143 268.57143 0 0 0 906.56445 844.17188 A 252.49215 252.49215 0 0 0 881.79297 952.51562 A 252.49215 252.49215 0 0 0 1134.2852 1205.0078 A 252.49215 252.49215 0 0 0 1386.7773 952.51562 A 252.49215 252.49215 0 0 0 1362.0098 844.02148 A 268.57143 268.57143 0 0 0 1362.0938 843.88867 L 1361.4551 842.7832 A 252.49215 252.49215 0 0 0 1343.0957 810.98438 L 1134.3359 449.40039 z "
       transform="scale(0.26458333)"
       id="path4575-1" />
  </g>
</svg>
